<?xml version="1.0" standalone="no"?>
<!DOCTYPE svg PUBLIC "-//W3C//DTD SVG 20010904//EN"
 "http://www.w3.org/TR/2001/REC-SVG-20010904/DTD/svg10.dtd">
<svg version="1.0" xmlns="http://www.w3.org/2000/svg"
 width="512.000000pt" height="512.000000pt" viewBox="0 0 512.000000 512.000000"
 preserveAspectRatio="xMidYMid meet">
<metadata>
Created by potrace 1.16, written by Peter Selinger 2001-2019
</metadata>
<g transform="translate(0.000000,512.000000) scale(0.100000,-0.100000)"
fill="#000000" stroke="none">
<path d="M3938 4477 c-65 -25 -125 -66 -172 -118 l-47 -52 -47 11 c-88 21
-119 24 -178 13 -117 -22 -226 -97 -273 -189 -17 -33 -36 -48 -108 -86 -187
-100 -488 -201 -883 -297 -331 -80 -356 -92 -525 -262 -71 -72 -209 -204 -305
-293 -96 -89 -218 -205 -270 -258 -89 -90 -98 -97 -151 -107 -70 -14 -113 -39
-138 -81 -37 -60 -36 -92 6 -277 5 -21 3 -23 -18 -17 -50 14 -224 18 -267 7
-98 -27 -149 -111 -139 -234 6 -84 47 -268 84 -382 66 -205 198 -424 353 -588
88 -92 243 -219 330 -269 34 -20 39 -28 42 -62 4 -54 40 -80 112 -80 121 0
155 80 61 144 -25 17 -45 39 -45 48 -1 23 -27 51 -148 161 -56 52 -101 96 -99
98 2 1 79 -17 170 -41 235 -63 375 -84 660 -99 224 -13 286 -21 249 -34 -34
-12 -63 -51 -75 -98 -11 -48 -14 -51 -62 -67 -29 -10 -82 -17 -126 -18 -84 0
-111 -16 -111 -64 0 -18 -9 -28 -29 -36 -30 -13 -59 -49 -59 -75 0 -9 13 -30
29 -46 38 -37 88 -39 147 -4 90 53 323 107 604 141 156 18 215 40 265 96 41
45 49 63 71 160 9 39 38 123 64 187 26 64 66 167 90 229 l43 112 156 109 c86
59 201 145 256 190 l100 81 16 -114 c19 -138 29 -176 86 -328 47 -129 52 -167
25 -191 -24 -22 -119 -22 -146 -2 -11 8 -39 15 -63 15 -72 0 -110 -60 -61 -95
19 -12 38 -14 98 -9 67 6 74 5 62 -8 -7 -9 -40 -28 -75 -44 -49 -22 -77 -28
-134 -29 -61 0 -75 -3 -97 -24 -36 -33 -35 -82 0 -110 31 -25 79 -27 131 -6
63 24 413 47 413 27 0 -15 -44 -50 -80 -65 -49 -20 -70 -43 -70 -77 0 -72 114
-77 144 -7 20 49 118 91 195 84 83 -8 274 -64 286 -84 27 -46 54 -63 99 -63
81 0 119 34 101 90 -8 25 -76 59 -117 60 -15 0 -30 5 -33 10 -9 14 40 12 110
-5 91 -22 139 -19 172 9 24 21 26 27 18 51 -19 53 -55 69 -158 70 -114 1 -162
22 -201 89 -14 24 -46 68 -72 97 -69 80 -74 99 -64 210 30 307 -7 553 -117
776 l-35 72 20 28 c31 44 79 144 92 193 7 25 13 108 14 186 l1 141 40 79 c57
112 165 220 309 305 195 115 258 192 272 333 6 60 4 71 -24 128 -16 35 -35 82
-42 106 -17 64 -70 117 -165 162 -78 37 -83 42 -90 77 -30 166 -197 311 -369
320 -44 2 -85 -2 -108 -10z m217 -61 c28 -13 69 -40 93 -61 43 -38 102 -127
101 -155 0 -8 -9 3 -21 25 -75 146 -235 208 -370 142 -30 -15 -63 -37 -74 -49
l-19 -22 35 23 c101 64 195 79 260 40 65 -39 117 -100 135 -156 6 -21 3 -23
-32 -24 l-38 0 51 -18 c27 -9 66 -27 85 -38 19 -12 64 -38 101 -58 99 -55 142
-99 162 -168 9 -32 26 -72 36 -90 26 -42 27 -113 2 -126 -21 -11 -194 -45
-507 -100 -126 -22 -320 -56 -430 -75 -117 -21 -252 -52 -325 -75 -149 -47
-118 -55 45 -12 61 16 182 41 270 55 88 15 337 58 553 97 217 39 396 68 400
64 13 -12 -16 -40 -49 -47 -156 -35 -712 -144 -860 -168 -101 -17 -243 -45
-316 -62 -143 -33 -187 -32 -219 3 -17 19 -17 23 -3 47 8 15 36 41 62 59 46
31 79 40 225 63 40 7 72 13 70 15 -2 2 -50 0 -108 -5 -148 -12 -239 -56 -270
-130 -11 -28 -11 -34 7 -58 38 -51 116 -63 238 -37 39 9 165 31 282 50 242 40
524 97 730 149 162 41 171 42 153 21 -43 -52 -334 -209 -551 -297 -140 -58
-256 -115 -247 -123 2 -2 54 10 116 26 62 16 138 32 168 35 l54 7 -35 -59
c-33 -55 -46 -89 -75 -201 -7 -29 -24 -53 -55 -81 -52 -46 -89 -61 -250 -102
-131 -33 -227 -75 -265 -115 l-25 -26 46 25 c66 37 116 53 246 76 148 27 209
50 267 101 l46 41 0 -84 c-1 -97 -21 -156 -90 -258 -60 -90 -143 -170 -289
-279 -128 -97 -222 -156 -344 -217 -40 -20 -108 -60 -152 -88 l-80 -52 5 70
c7 87 46 174 151 337 94 146 130 247 137 379 9 192 -32 279 -206 433 -123 109
-164 160 -191 240 -53 154 -25 322 75 444 45 55 21 59 -33 6 -20 -21 -33 -31
-28 -23 5 10 1 8 -13 -4 -33 -28 -101 -168 -121 -248 -10 -40 -22 -122 -26
-183 -12 -178 -57 -280 -169 -383 -113 -103 -257 -150 -524 -171 -140 -11
-219 -28 -297 -61 -131 -56 -102 14 35 86 82 44 34 37 -58 -7 -72 -35 -142
-97 -142 -125 0 -54 53 -57 133 -9 102 61 121 66 297 76 91 5 199 16 241 24
145 28 269 95 361 192 85 92 118 181 143 388 10 79 27 163 45 217 29 85 75
188 85 188 3 0 -3 -17 -13 -37 -39 -76 -56 -147 -56 -228 0 -96 16 -165 60
-267 67 -151 46 -205 -126 -331 -36 -26 -57 -55 -100 -138 -30 -57 -72 -128
-93 -157 -89 -121 -248 -227 -406 -271 -87 -24 -99 -31 -39 -24 106 13 324
108 406 177 24 19 76 75 116 123 112 136 131 150 293 209 152 56 149 55 178
32 21 -16 25 -28 25 -73 0 -59 -29 -148 -61 -189 -12 -16 -15 -24 -7 -21 8 3
31 31 51 61 56 86 63 190 15 241 -19 21 -30 24 -64 20 l-42 -4 5 36 c2 20 -2
69 -10 109 -8 39 -12 72 -10 72 14 0 95 -65 136 -109 94 -101 118 -205 81
-359 -21 -89 -93 -235 -145 -297 -39 -47 -63 -91 -104 -190 l-16 -39 -29 50
c-24 43 -66 84 -85 84 -3 0 6 -18 21 -39 14 -21 32 -60 40 -87 18 -62 18 -241
-1 -322 -21 -87 -222 -581 -248 -610 -19 -21 -28 -23 -67 -18 l-45 6 28 -21
c15 -11 27 -27 27 -35 0 -12 4 -12 20 -2 26 17 35 4 21 -31 -15 -36 -57 -76
-94 -90 -15 -6 -114 -22 -220 -36 -210 -29 -313 -51 -409 -89 -84 -33 -93 -34
-93 -13 0 20 4 22 245 119 69 28 142 59 163 70 67 34 32 31 -60 -5 -134 -53
-145 -55 -98 -19 72 54 100 81 87 82 -8 0 -27 -8 -43 -17 -32 -19 -44 -14 -34
17 20 63 131 73 242 22 40 -18 94 -35 125 -38 l53 -4 -54 15 c-59 17 -151 63
-151 77 0 11 4 11 105 -16 50 -13 92 -22 94 -20 4 4 -54 30 -132 58 l-47 18 0
90 c0 166 47 414 110 576 44 114 119 234 221 351 49 58 89 108 89 113 0 5 -44
-29 -97 -76 -93 -81 -131 -123 -204 -225 l-31 -43 -29 28 c-22 21 -29 37 -29
67 0 83 68 164 210 250 56 34 119 85 185 150 55 55 87 92 71 82 -80 -48 -97
-57 -102 -52 -22 21 62 116 158 178 70 45 44 43 -45 -4 -74 -39 -131 -96 -167
-168 -36 -71 -71 -106 -180 -179 -168 -113 -220 -203 -220 -379 0 -103 -9
-118 -99 -160 -52 -24 -66 -26 -188 -26 -115 0 -129 -2 -107 -13 74 -39 213
-33 329 13 52 21 57 22 35 5 -14 -11 -49 -29 -79 -40 -167 -64 -336 -47 -428
42 -32 31 -33 35 -33 113 0 135 -45 277 -141 450 -53 95 -158 249 -165 242 -2
-2 31 -78 75 -168 122 -255 157 -389 131 -514 -28 -138 -127 -229 -211 -195
-34 15 -55 51 -89 155 -59 183 -226 445 -414 650 -54 59 -55 59 -46 25 13 -46
-4 -64 -30 -32 -40 49 -52 187 -20 239 29 48 74 58 190 40 117 -18 192 -46
277 -103 36 -24 68 -42 70 -40 2 2 -22 25 -54 50 -67 54 -224 136 -259 136
-13 0 -24 4 -24 8 0 11 281 286 503 492 255 237 304 266 541 315 131 27 348
88 376 106 13 9 12 10 -2 5 -87 -27 -305 -79 -399 -95 -126 -23 -179 -39 -248
-76 l-46 -25 35 31 c59 51 128 77 310 119 314 72 608 159 780 230 41 17 71 28
69 25 -13 -12 -135 -88 -178 -109 -26 -14 -122 -77 -212 -140 -166 -117 -281
-183 -442 -251 -48 -21 -86 -39 -84 -42 6 -5 273 84 319 108 91 47 197 121
414 291 7 5 22 11 35 13 12 3 34 15 48 29 14 13 69 47 121 76 52 29 102 59
110 68 14 14 13 14 -10 1 -30 -18 -60 -30 -60 -24 0 6 103 75 112 75 4 0 5
-26 2 -58 -7 -66 11 -144 54 -229 24 -49 50 -75 35 -35 -4 10 10 2 36 -20 62
-53 125 -71 222 -66 107 6 188 46 264 131 30 34 55 66 55 71 0 4 -9 -2 -20
-15 -19 -23 -19 -22 1 31 29 76 29 181 1 235 -76 147 -290 205 -452 122 -109
-56 -160 -231 -105 -363 22 -52 91 -120 148 -145 70 -30 162 -30 234 1 102 44
153 134 153 271 0 61 -3 72 -33 111 -63 83 -207 129 -302 98 -47 -16 -109 -70
-141 -126 -20 -34 -26 -58 -27 -117 -2 -88 -17 -80 -17 8 0 72 23 126 77 185
51 57 102 80 183 80 71 0 139 -25 206 -76 51 -39 65 -74 66 -159 0 -91 -24
-175 -62 -218 -77 -88 -218 -120 -335 -77 -84 31 -158 107 -181 186 -75 260
153 486 412 409 73 -21 166 -85 214 -147 23 -29 50 -56 59 -59 9 -3 75 -9 146
-12 152 -7 129 8 -33 21 -56 5 -104 11 -105 13 -2 2 -20 28 -40 57 l-37 52 88
1 c99 1 83 11 -48 30 -41 6 -87 18 -103 28 l-27 17 30 40 c29 40 74 76 135
108 48 25 159 21 220 -8z m-489 -265 c45 -20 114 -95 114 -123 0 -26 -38 -23
-80 6 -86 57 -185 61 -270 8 -62 -39 -70 -39 -70 -5 0 36 41 86 92 112 56 27
156 28 214 2z m-56 -96 c27 -33 -8 -73 -53 -61 -47 11 -31 76 19 76 12 0 27
-7 34 -15z m-231 -199 c111 -102 228 -101 329 3 22 23 49 41 60 41 19 0 20 -3
10 -32 -42 -122 -199 -191 -325 -143 -50 19 -136 91 -127 106 3 5 2 9 -3 9 -4
0 -8 16 -9 35 0 19 1 35 3 35 2 0 30 -24 62 -54z m295 -7 c-11 -19 -87 -49
-125 -49 -36 0 -97 16 -112 30 -5 4 16 1 46 -7 61 -17 105 -13 157 16 42 24
43 24 34 10z m-628 -934 c-8 -41 -37 -66 -109 -95 -31 -12 -75 -35 -97 -51
-46 -33 -47 -32 -20 21 14 28 42 53 100 90 48 32 89 67 102 89 l23 36 3 -29
c2 -16 1 -43 -2 -61z m-2246 -526 c147 -70 359 -260 439 -393 108 -180 130
-386 52 -494 -51 -69 -148 -95 -220 -57 -100 51 -273 275 -421 543 -34 62 -63
112 -65 112 -16 0 214 -468 282 -573 26 -42 118 -143 233 -259 105 -106 190
-199 190 -209 0 -47 -66 -37 -108 16 -11 13 -60 56 -110 95 -120 92 -185 157
-260 258 -119 160 -195 316 -270 552 -48 151 -66 250 -60 319 13 130 152 169
318 90z m3197 -115 c18 -43 45 -128 60 -189 24 -98 27 -129 27 -280 1 -230 -4
-303 -21 -317 -11 -9 -10 -15 8 -35 l22 -23 -46 0 c-25 0 -48 -4 -51 -9 -8
-13 41 -23 74 -16 23 5 34 -2 79 -51 49 -53 89 -114 75 -114 -3 0 -19 9 -36
21 -40 29 -46 18 -7 -15 46 -39 103 -67 189 -92 49 -14 76 -27 78 -38 4 -19
-16 -20 -108 -5 -47 7 -73 17 -92 36 -23 22 -28 23 -28 10 0 -31 -22 -17 -112
71 -82 79 -88 83 -70 47 28 -56 127 -147 198 -183 62 -31 91 -56 76 -66 -4 -2
-75 17 -158 45 -82 27 -160 49 -175 49 -14 0 -63 -18 -108 -40 -89 -43 -125
-49 -73 -11 35 24 72 87 72 121 0 12 -7 35 -16 52 -15 28 -19 30 -57 25 -42
-6 -173 -56 -149 -57 7 0 45 7 83 16 78 18 99 14 99 -16 0 -17 -6 -20 -45 -20
-25 0 -110 -7 -190 -16 -80 -9 -152 -13 -160 -10 -27 10 -16 24 33 40 26 9 72
34 102 56 30 21 100 67 155 102 82 52 111 64 170 74 65 11 67 12 25 14 -25 1
-54 5 -65 9 -33 13 35 21 97 12 66 -11 73 -6 22 15 -26 11 -59 15 -109 12
l-70 -3 -1 45 c-10 285 -9 336 8 391 10 31 26 67 36 79 l19 23 16 -40 c26 -65
40 -161 41 -285 1 -84 4 -110 11 -95 5 12 9 94 10 182 0 128 -4 171 -18 213
-18 53 -18 55 2 96 23 46 42 134 32 141 -4 2 -12 -16 -19 -40 -6 -24 -23 -56
-37 -72 -24 -27 -25 -28 -40 -9 -19 25 -19 57 0 103 20 47 86 134 100 130 5
-2 24 -39 42 -83z m-1528 -428 c-10 -28 -19 -52 -19 -54 0 -2 -4 0 -10 3 -5 3
-10 41 -10 82 l0 77 29 -28 30 -29 -20 -51z m841 80 c0 -6 -126 -89 -160 -106
-39 -19 -12 3 69 59 68 47 91 58 91 47z m-1518 -342 c138 -35 358 -43 502 -20
54 9 101 15 103 12 2 -2 0 -39 -6 -81 -6 -42 -11 -95 -11 -118 l0 -41 -34 33
c-37 36 -24 35 -170 15 -36 -5 -52 -1 -97 24 -30 17 -81 36 -114 42 -57 12
-172 67 -273 130 -60 38 -39 39 100 4z m-63 -78 c70 -36 157 -72 192 -81 35
-9 93 -32 129 -51 161 -84 259 -123 296 -117 33 6 36 4 32 -18 -6 -46 -57 -37
-228 41 -85 39 -222 94 -305 122 -139 46 -325 124 -325 136 0 11 37 31 58 32
12 0 80 -29 151 -64z m-152 -35 c49 -22 143 -58 209 -81 232 -82 330 -122 419
-172 102 -57 100 -56 92 -64 -8 -8 -116 24 -155 47 -22 13 -52 19 -90 19 -160
0 -462 55 -702 127 l-85 25 29 15 c36 19 44 18 376 -50 151 -32 282 -57 290
-57 33 1 -40 29 -130 50 -171 40 -361 90 -398 106 l-37 15 35 29 c19 16 40 30
46 30 6 0 51 -18 101 -39z m1923 -116 c0 -16 -45 -21 -54 -6 -8 12 4 21 31 21
14 0 23 -6 23 -15z m-1197 -9 c7 -18 -1 -26 -29 -26 -47 0 -73 24 -36 33 35 9
60 7 65 -7z m1068 -166 c23 -13 25 -46 3 -54 -30 -11 -75 -6 -81 9 -6 18 23
55 44 55 8 0 23 -5 34 -10z m1209 -60 c12 -22 4 -30 -31 -30 -40 0 -59 10 -59
30 0 32 73 32 90 0z m-2414 -105 c-7 -18 -26 -20 -26 -2 0 18 24 41 28 27 2
-6 1 -17 -2 -25z m1604 -20 c0 -21 -47 -42 -61 -28 -7 7 -5 15 6 27 21 20 55
21 55 1z m640 0 c34 -17 37 -27 15 -45 -17 -15 -68 -5 -86 17 -11 13 -10 18 6
29 24 18 29 17 65 -1z m-3050 -25 c47 -24 56 -36 39 -56 -28 -34 -129 3 -129
47 0 33 36 37 90 9z m779 -15 c-3 -2 -56 -25 -118 -50 -106 -42 -171 -56 -171
-36 0 19 32 33 99 42 39 6 94 18 123 29 53 19 75 24 67 15z m-261 -134 c20
-12 10 -43 -19 -60 -33 -18 -79 -8 -79 19 0 36 64 63 98 41z"/>
<path d="M3927 4145 c18 -8 106 -26 197 -39 249 -38 310 -56 390 -119 29 -23
36 -26 28 -11 -38 72 -137 105 -457 154 -77 11 -151 23 -165 26 -20 3 -19 1 7
-11z"/>
<path d="M3884 3987 c-1 -35 -7 -73 -13 -86 -7 -12 -10 -25 -7 -28 9 -10 46
80 46 113 0 16 -6 38 -12 47 -11 14 -13 7 -14 -46z"/>
<path d="M4302 4004 c-36 -25 -26 -65 20 -87 21 -10 46 -17 55 -14 16 3 16 5
-2 11 -11 4 -31 13 -45 19 -25 11 -25 11 9 15 21 2 51 -5 82 -21 27 -13 52
-20 55 -15 13 21 -19 68 -60 88 -51 24 -84 25 -114 4z"/>
<path d="M2808 3773 c-25 -21 -82 -71 -127 -111 -144 -128 -207 -161 -446
-232 -160 -47 -257 -81 -251 -87 2 -2 52 12 112 30 60 19 164 51 232 71 196
58 276 104 422 243 115 109 152 165 58 86z"/>
<path d="M2849 3723 c-68 -70 -112 -134 -139 -202 -30 -76 -25 -74 23 10 24
41 65 104 92 138 78 99 87 111 83 111 -2 0 -29 -26 -59 -57z"/>
<path d="M3120 3743 c-24 -9 -61 -45 -77 -77 -37 -71 16 -165 95 -167 37 -1
37 -1 7 -8 -68 -16 -125 24 -125 88 -1 27 -3 32 -10 20 -13 -23 5 -82 36 -113
15 -14 30 -26 34 -26 4 0 5 -22 2 -49 -10 -108 53 -187 211 -264 101 -50 166
-100 199 -152 28 -46 22 -5 -7 50 l-26 48 66 -7 c36 -4 77 -11 91 -17 44 -16
38 -3 -8 19 -24 12 -103 37 -176 57 -73 19 -155 44 -182 56 -92 39 -156 137
-148 222 2 24 9 32 31 38 78 21 143 111 134 183 -10 72 -84 122 -147 99z"/>
<path d="M2145 3585 c-154 -32 -253 -76 -360 -159 -75 -59 -416 -378 -410
-384 6 -6 89 65 258 220 228 211 302 254 530 313 153 38 142 44 -18 10z"/>
<path d="M2364 3390 c-77 -20 -163 -54 -264 -105 -36 -18 -101 -42 -145 -54
-105 -29 -213 -82 -360 -175 -82 -52 -145 -84 -200 -101 -44 -14 -91 -32 -105
-41 -18 -11 -19 -14 -5 -9 35 11 117 25 149 25 41 0 76 21 177 102 131 106
242 158 385 179 59 9 88 20 135 50 111 72 189 105 319 133 58 12 61 14 25 14
-22 1 -72 -7 -111 -18z"/>
<path d="M3000 3337 c0 -35 98 -165 144 -189 11 -6 -4 13 -32 41 -29 29 -66
76 -82 104 -16 29 -30 48 -30 44z"/>
<path d="M2790 2978 c-25 -39 -83 -111 -130 -161 -80 -86 -108 -107 -299 -226
-87 -55 -145 -109 -172 -163 -21 -40 -19 -39 37 22 39 42 106 94 199 155 174
114 240 170 311 264 51 68 110 169 102 176 -2 2 -23 -29 -48 -67z"/>
<path d="M1035 2587 c11 -8 63 -38 115 -67 129 -72 219 -132 282 -188 43 -39
48 -41 31 -16 -53 75 -177 164 -330 235 -105 50 -133 60 -98 36z"/>
<path d="M1620 2596 c0 -4 36 -67 79 -140 43 -72 125 -224 182 -338 57 -114
104 -206 106 -205 4 5 -82 208 -126 296 -59 117 -241 409 -241 387z"/>
<path d="M2679 2434 c-24 -25 -79 -71 -121 -101 -43 -30 -78 -57 -78 -60 0 -5
55 27 115 68 47 32 141 126 134 134 -3 2 -25 -16 -50 -41z"/>
<path d="M3098 2437 c-70 -39 -138 -95 -169 -139 -19 -27 -12 -23 36 20 51 46
105 84 191 139 42 26 -5 11 -58 -20z"/>
<path d="M3820 2436 c-25 -13 -110 -49 -190 -81 -198 -78 -290 -127 -355 -191
-66 -65 -71 -86 -12 -46 85 59 155 96 300 158 137 58 267 132 297 169 16 19
14 19 -40 -9z"/>
<path d="M1688 2350 c124 -273 176 -380 217 -445 25 -41 48 -75 50 -75 6 0
-184 396 -232 483 -57 104 -73 121 -35 37z"/>
<path d="M1547 2282 c77 -194 101 -329 68 -391 -16 -32 -33 -41 -76 -41 -47 0
-98 61 -148 176 -69 159 -119 264 -126 264 -3 0 0 -10 6 -22 7 -12 37 -88 68
-168 67 -173 101 -234 144 -261 74 -44 149 -6 162 84 9 57 -10 170 -42 262
-24 66 -89 205 -97 205 -1 0 17 -49 41 -108z"/>
<path d="M3138 2338 c-21 -32 -57 -103 -68 -136 -10 -26 -9 -26 6 -7 26 34 90
165 80 165 -2 0 -10 -10 -18 -22z"/>
<path d="M1358 2310 c53 -95 74 -130 79 -130 7 0 -56 113 -78 140 l-21 25 20
-35z"/>
<path d="M2894 2180 c4 -14 10 -62 13 -106 5 -73 3 -87 -20 -137 -14 -30 -44
-83 -66 -116 -23 -34 -40 -61 -38 -61 10 0 116 139 136 177 26 51 28 132 5
200 -17 52 -42 87 -30 43z"/>
<path d="M2764 2127 c-138 -182 -248 -438 -289 -671 -26 -151 -17 -220 30
-247 39 -23 85 -34 85 -21 0 5 -12 13 -26 16 -14 4 -37 18 -50 31 -21 21 -24
33 -24 105 0 197 71 400 247 708 36 62 64 115 62 117 -2 1 -18 -16 -35 -38z"/>
<path d="M2788 1692 c-36 -53 -86 -135 -111 -182 -46 -85 -101 -219 -94 -227
2 -2 31 52 65 119 33 68 95 181 137 251 42 71 75 130 73 132 -2 2 -33 -40 -70
-93z"/>
<path d="M2911 1644 c-7 -16 -44 -106 -82 -201 -77 -194 -84 -209 -111 -239
-23 -25 -13 -36 20 -23 15 6 33 31 53 75 37 80 141 392 137 406 -2 6 -10 -3
-17 -18z"/>
<path d="M720 2372 c273 -186 448 -384 487 -552 l13 -55 -4 65 c-9 171 -218
414 -463 539 -50 25 -68 27 -33 3z"/>
<path d="M667 2235 c54 -70 315 -329 383 -379 35 -26 83 -57 105 -68 47 -24
41 -17 -42 46 -34 25 -142 124 -240 219 -99 94 -192 183 -208 197 l-29 25 31
-40z"/>
<path d="M630 2094 c0 -18 101 -202 153 -278 156 -227 329 -331 447 -267 59
31 77 99 44 162 -21 41 -28 31 -10 -12 28 -66 -22 -129 -102 -129 -118 0 -273
149 -477 458 -45 68 -55 80 -55 66z"/>
<path d="M730 1697 c0 -16 83 -173 107 -202 22 -28 22 -25 -5 25 -78 143 -102
184 -102 177z"/>
<path d="M1063 1225 c43 -42 82 -74 85 -70 8 8 -111 120 -143 136 -11 6 15
-24 58 -66z"/>
<path d="M3780 1356 c-82 -34 -163 -77 -157 -83 6 -5 180 71 211 93 29 20 9
17 -54 -10z"/>
</g>
</svg>